<mxfile host="Electron" agent="Mozilla/5.0 (Macintosh; Intel Mac OS X 10_15_7) AppleWebKit/537.36 (KHTML, like Gecko) draw.io/24.7.17 Chrome/128.0.6613.36 Electron/32.0.1 Safari/537.36" version="24.7.17">
  <diagram id="C5RBs43oDa-KdzZeNtuy" name="Page-1">
    <mxGraphModel dx="1026" dy="772" grid="1" gridSize="10" guides="1" tooltips="1" connect="1" arrows="1" fold="1" page="1" pageScale="1" pageWidth="827" pageHeight="1169" math="0" shadow="0">
      <root>
        <mxCell id="WIyWlLk6GJQsqaUBKTNV-0" />
        <mxCell id="WIyWlLk6GJQsqaUBKTNV-1" parent="WIyWlLk6GJQsqaUBKTNV-0" />
        <mxCell id="NCr9cHnQ2ZNAjyW3Bn2m-0" value="START" style="ellipse;whiteSpace=wrap;html=1;" vertex="1" parent="WIyWlLk6GJQsqaUBKTNV-1">
          <mxGeometry x="346" y="230" width="120" height="50" as="geometry" />
        </mxCell>
        <mxCell id="NCr9cHnQ2ZNAjyW3Bn2m-1" value="" style="endArrow=classic;html=1;rounded=0;exitX=0.5;exitY=1;exitDx=0;exitDy=0;" edge="1" parent="WIyWlLk6GJQsqaUBKTNV-1" source="NCr9cHnQ2ZNAjyW3Bn2m-0">
          <mxGeometry width="50" height="50" relative="1" as="geometry">
            <mxPoint x="382" y="400" as="sourcePoint" />
            <mxPoint x="406" y="340" as="targetPoint" />
          </mxGeometry>
        </mxCell>
        <mxCell id="NCr9cHnQ2ZNAjyW3Bn2m-4" style="edgeStyle=orthogonalEdgeStyle;rounded=0;orthogonalLoop=1;jettySize=auto;html=1;" edge="1" parent="WIyWlLk6GJQsqaUBKTNV-1" source="NCr9cHnQ2ZNAjyW3Bn2m-2" target="NCr9cHnQ2ZNAjyW3Bn2m-5">
          <mxGeometry relative="1" as="geometry">
            <mxPoint x="406" y="470" as="targetPoint" />
          </mxGeometry>
        </mxCell>
        <mxCell id="NCr9cHnQ2ZNAjyW3Bn2m-2" value="Input milesDriven&lt;div&gt;Input gallonsUsed&lt;/div&gt;" style="shape=parallelogram;perimeter=parallelogramPerimeter;whiteSpace=wrap;html=1;fixedSize=1;" vertex="1" parent="WIyWlLk6GJQsqaUBKTNV-1">
          <mxGeometry x="336" y="340" width="140" height="60" as="geometry" />
        </mxCell>
        <mxCell id="NCr9cHnQ2ZNAjyW3Bn2m-5" value="milesPerGallon =&amp;nbsp;&lt;div&gt;milesDriven/gallonsUsed&lt;/div&gt;" style="rounded=0;whiteSpace=wrap;html=1;" vertex="1" parent="WIyWlLk6GJQsqaUBKTNV-1">
          <mxGeometry x="329" y="460" width="154" height="60" as="geometry" />
        </mxCell>
        <mxCell id="NCr9cHnQ2ZNAjyW3Bn2m-13" value="" style="edgeStyle=orthogonalEdgeStyle;rounded=0;orthogonalLoop=1;jettySize=auto;html=1;" edge="1" parent="WIyWlLk6GJQsqaUBKTNV-1" source="NCr9cHnQ2ZNAjyW3Bn2m-7" target="NCr9cHnQ2ZNAjyW3Bn2m-11">
          <mxGeometry relative="1" as="geometry">
            <Array as="points">
              <mxPoint x="398" y="690" />
              <mxPoint x="398" y="690" />
            </Array>
          </mxGeometry>
        </mxCell>
        <mxCell id="NCr9cHnQ2ZNAjyW3Bn2m-7" value="Output milesPerGallon" style="shape=parallelogram;perimeter=parallelogramPerimeter;whiteSpace=wrap;html=1;fixedSize=1;" vertex="1" parent="WIyWlLk6GJQsqaUBKTNV-1">
          <mxGeometry x="320" y="580" width="156" height="60" as="geometry" />
        </mxCell>
        <mxCell id="NCr9cHnQ2ZNAjyW3Bn2m-8" style="edgeStyle=orthogonalEdgeStyle;rounded=0;orthogonalLoop=1;jettySize=auto;html=1;entryX=0.547;entryY=0.05;entryDx=0;entryDy=0;entryPerimeter=0;" edge="1" parent="WIyWlLk6GJQsqaUBKTNV-1" source="NCr9cHnQ2ZNAjyW3Bn2m-5" target="NCr9cHnQ2ZNAjyW3Bn2m-7">
          <mxGeometry relative="1" as="geometry" />
        </mxCell>
        <mxCell id="NCr9cHnQ2ZNAjyW3Bn2m-11" value="END" style="ellipse;whiteSpace=wrap;html=1;" vertex="1" parent="WIyWlLk6GJQsqaUBKTNV-1">
          <mxGeometry x="336" y="710" width="120" height="50" as="geometry" />
        </mxCell>
      </root>
    </mxGraphModel>
  </diagram>
</mxfile>
